<svg width="80" height="12" viewBox="0 0 80 12" fill="none" xmlns="http://www.w3.org/2000/svg">
<path d="M6.50781 8.94922H2.91211L2.22852 11H0.0478516L3.75293 1.04688H5.65332L9.37891 11H7.19824L6.50781 8.94922ZM3.46582 7.28809H5.9541L4.70312 3.5625L3.46582 7.28809ZM9.87109 7.24707C9.87109 6.09408 10.1286 5.17578 10.6436 4.49219C11.1631 3.80859 11.8717 3.4668 12.7695 3.4668C13.4896 3.4668 14.0843 3.73568 14.5537 4.27344V0.5H16.5361V11H14.752L14.6562 10.2139C14.1641 10.8291 13.5306 11.1367 12.7559 11.1367C11.8854 11.1367 11.1859 10.7949 10.6572 10.1113C10.1331 9.42318 9.87109 8.46842 9.87109 7.24707ZM11.8467 7.39062C11.8467 8.08333 11.9674 8.61426 12.209 8.9834C12.4505 9.35254 12.8014 9.53711 13.2617 9.53711C13.8724 9.53711 14.3031 9.27962 14.5537 8.76465V5.8457C14.3076 5.33073 13.8815 5.07324 13.2754 5.07324C12.3229 5.07324 11.8467 5.8457 11.8467 7.39062ZM19.9199 3.60352L19.9814 4.43066C20.5055 3.78809 21.2142 3.4668 22.1074 3.4668C23.0599 3.4668 23.7139 3.84277 24.0693 4.59473C24.5889 3.84277 25.3294 3.4668 26.291 3.4668C27.0931 3.4668 27.6901 3.7015 28.082 4.1709C28.474 4.63574 28.6699 5.33757 28.6699 6.27637V11H26.6875V6.2832C26.6875 5.86393 26.6055 5.55859 26.4414 5.36719C26.2773 5.17122 25.988 5.07324 25.5732 5.07324C24.9808 5.07324 24.5706 5.35579 24.3428 5.9209L24.3496 11H22.374V6.29004C22.374 5.86165 22.2897 5.55176 22.1211 5.36035C21.9525 5.16895 21.6654 5.07324 21.2598 5.07324C20.6992 5.07324 20.2936 5.30566 20.043 5.77051V11H18.0674V3.60352H19.9199ZM32.2793 11H30.2969V3.60352H32.2793V11ZM30.1807 1.68945C30.1807 1.39323 30.2786 1.14941 30.4746 0.958008C30.6751 0.766602 30.9463 0.670898 31.2881 0.670898C31.6253 0.670898 31.8942 0.766602 32.0947 0.958008C32.2952 1.14941 32.3955 1.39323 32.3955 1.68945C32.3955 1.99023 32.293 2.23633 32.0879 2.42773C31.8874 2.61914 31.6208 2.71484 31.2881 2.71484C30.9554 2.71484 30.6865 2.61914 30.4814 2.42773C30.2809 2.23633 30.1807 1.99023 30.1807 1.68945ZM35.7314 3.60352L35.793 4.45801C36.3216 3.7972 37.0303 3.4668 37.9189 3.4668C38.7028 3.4668 39.2861 3.69694 39.6689 4.15723C40.0518 4.61751 40.2477 5.30566 40.2568 6.22168V11H38.2812V6.26953C38.2812 5.85026 38.1901 5.5472 38.0078 5.36035C37.8255 5.16895 37.5225 5.07324 37.0986 5.07324C36.5426 5.07324 36.1257 5.31022 35.8477 5.78418V11H33.8721V3.60352H35.7314ZM47.4277 7.49316V11H45.377V1.04688H49.2598C50.0072 1.04688 50.6634 1.18359 51.2285 1.45703C51.7982 1.73047 52.2357 2.12012 52.541 2.62598C52.8464 3.12728 52.999 3.69922 52.999 4.3418C52.999 5.31706 52.6641 6.08724 51.9941 6.65234C51.3288 7.21289 50.4059 7.49316 49.2256 7.49316H47.4277ZM47.4277 5.83203H49.2598C49.8021 5.83203 50.2145 5.70443 50.4971 5.44922C50.7842 5.19401 50.9277 4.82943 50.9277 4.35547C50.9277 3.86784 50.7842 3.47363 50.4971 3.17285C50.21 2.87207 49.8135 2.71712 49.3076 2.70801H47.4277V5.83203ZM58.4883 11C58.3971 10.8223 58.3311 10.6012 58.29 10.3369C57.8115 10.8701 57.1895 11.1367 56.4238 11.1367C55.6992 11.1367 55.0977 10.9271 54.6191 10.5078C54.1452 10.0885 53.9082 9.5599 53.9082 8.92188C53.9082 8.13802 54.1976 7.53646 54.7764 7.11719C55.3597 6.69792 56.2005 6.486 57.2988 6.48145H58.208V6.05762C58.208 5.71582 58.1191 5.44238 57.9414 5.2373C57.7682 5.03223 57.4925 4.92969 57.1143 4.92969C56.7816 4.92969 56.5195 5.00944 56.3281 5.16895C56.1413 5.32845 56.0479 5.5472 56.0479 5.8252H54.0723C54.0723 5.39681 54.2044 5.00033 54.4688 4.63574C54.7331 4.27116 55.1068 3.98633 55.5898 3.78125C56.0729 3.57161 56.6152 3.4668 57.2168 3.4668C58.1283 3.4668 58.8506 3.69694 59.3838 4.15723C59.9215 4.61296 60.1904 5.25553 60.1904 6.08496V9.29102C60.195 9.99284 60.293 10.5238 60.4844 10.8838V11H58.4883ZM56.8545 9.62598C57.1462 9.62598 57.415 9.56217 57.6611 9.43457C57.9072 9.30241 58.0895 9.12695 58.208 8.9082V7.63672H57.4697C56.4808 7.63672 55.9544 7.97852 55.8906 8.66211L55.8838 8.77832C55.8838 9.02441 55.9704 9.22721 56.1436 9.38672C56.3167 9.54622 56.5537 9.62598 56.8545 9.62598ZM63.5264 3.60352L63.5879 4.45801C64.1165 3.7972 64.8252 3.4668 65.7139 3.4668C66.4977 3.4668 67.0811 3.69694 67.4639 4.15723C67.8467 4.61751 68.0426 5.30566 68.0518 6.22168V11H66.0762V6.26953C66.0762 5.85026 65.985 5.5472 65.8027 5.36035C65.6204 5.16895 65.3174 5.07324 64.8936 5.07324C64.3376 5.07324 63.9206 5.31022 63.6426 5.78418V11H61.667V3.60352H63.5264ZM72.96 11.1367C71.8753 11.1367 70.9912 10.804 70.3076 10.1387C69.6286 9.47331 69.2891 8.58691 69.2891 7.47949V7.28809C69.2891 6.54525 69.4326 5.88216 69.7197 5.29883C70.0068 4.71094 70.4124 4.25977 70.9365 3.94531C71.4652 3.6263 72.0667 3.4668 72.7412 3.4668C73.7529 3.4668 74.5482 3.78581 75.127 4.42383C75.7103 5.06185 76.002 5.96647 76.002 7.1377V7.94434H71.292C71.3558 8.42741 71.5472 8.81478 71.8662 9.10645C72.1898 9.39811 72.5977 9.54395 73.0898 9.54395C73.8509 9.54395 74.4456 9.26823 74.874 8.7168L75.8447 9.80371C75.5485 10.223 75.1475 10.5511 74.6416 10.7881C74.1357 11.0205 73.5752 11.1367 72.96 11.1367ZM72.7344 5.06641C72.3424 5.06641 72.0234 5.19857 71.7773 5.46289C71.5358 5.72721 71.3809 6.10547 71.3125 6.59766H74.0605V6.44043C74.0514 6.00293 73.9329 5.66569 73.7051 5.42871C73.4772 5.18717 73.1536 5.06641 72.7344 5.06641ZM79.2148 11H77.2324V0.5H79.2148V11Z" fill="black"/>
</svg>
