<svg width="117" height="49" viewBox="0 0 117 49" fill="none" xmlns="http://www.w3.org/2000/svg">
<path d="M13.8574 31.1328L16.2637 19.3594H18.96L15.3506 35H12.751L9.77539 23.5811L6.73535 35H4.125L0.515625 19.3594H3.21191L5.63965 31.1113L8.62598 19.3594H10.9033L13.8574 31.1328ZM30.0889 28.0176H23.665V32.8301H31.1738V35H20.9473V19.3594H31.0986V21.5508H23.665V25.8691H30.0889V28.0176Z" fill="black"/>
<path d="M52.1934 29.3164C52.0605 31.1523 51.3809 32.5977 50.1543 33.6523C48.9355 34.707 47.3262 35.2344 45.3262 35.2344C43.1387 35.2344 41.416 34.5 40.1582 33.0312C38.9082 31.5547 38.2832 29.5312 38.2832 26.9609V25.918C38.2832 24.2773 38.5723 22.832 39.1504 21.582C39.7285 20.332 40.5527 19.375 41.623 18.7109C42.7012 18.0391 43.9512 17.7031 45.373 17.7031C47.3418 17.7031 48.9277 18.2305 50.1309 19.2852C51.334 20.3398 52.0293 21.8203 52.2168 23.7266H48.7012C48.6152 22.625 48.3066 21.8281 47.7754 21.3359C47.252 20.8359 46.4512 20.5859 45.373 20.5859C44.2012 20.5859 43.3223 21.0078 42.7363 21.8516C42.1582 22.6875 41.8613 23.9883 41.8457 25.7539V27.043C41.8457 28.8867 42.123 30.2344 42.6777 31.0859C43.2402 31.9375 44.123 32.3633 45.3262 32.3633C46.4121 32.3633 47.2207 32.1172 47.752 31.625C48.291 31.125 48.5996 30.3555 48.6777 29.3164H52.1934ZM64.1348 31.4844H57.9707L56.7988 35H53.0605L59.4121 17.9375H62.6699L69.0566 35H65.3184L64.1348 31.4844ZM58.9199 28.6367H63.1855L61.041 22.25L58.9199 28.6367ZM76.9668 28.7539H74.166V35H70.6504V17.9375H76.9902C79.0059 17.9375 80.5605 18.3867 81.6543 19.2852C82.748 20.1836 83.2949 21.4531 83.2949 23.0938C83.2949 24.2578 83.041 25.2305 82.5332 26.0117C82.0332 26.7852 81.2715 27.4023 80.248 27.8633L83.9395 34.8359V35H80.166L76.9668 28.7539ZM74.166 25.9062H77.002C77.8848 25.9062 78.5684 25.6836 79.0527 25.2383C79.5371 24.7852 79.7793 24.1641 79.7793 23.375C79.7793 22.5703 79.5488 21.9375 79.0879 21.4766C78.6348 21.0156 77.9355 20.7852 76.9902 20.7852H74.166V25.9062ZM98.2363 20.7852H93.0098V35H89.4941V20.7852H84.3379V17.9375H98.2363V20.7852ZM97.1816 33.3359C97.1816 32.7969 97.3613 32.3594 97.7207 32.0234C98.0879 31.6875 98.5449 31.5195 99.0918 31.5195C99.6465 31.5195 100.104 31.6875 100.463 32.0234C100.83 32.3594 101.014 32.7969 101.014 33.3359C101.014 33.8672 100.834 34.3008 100.475 34.6367C100.115 34.9648 99.6543 35.1289 99.0918 35.1289C98.5371 35.1289 98.0801 34.9648 97.7207 34.6367C97.3613 34.3008 97.1816 33.8672 97.1816 33.3359Z" fill="#0F9CEB"/>
<path d="M6.50781 10.9492H2.91211L2.22852 13H0.0478516L3.75293 3.04688H5.65332L9.37891 13H7.19824L6.50781 10.9492ZM3.46582 9.28809H5.9541L4.70312 5.5625L3.46582 9.28809ZM9.87109 9.24707C9.87109 8.09408 10.1286 7.17578 10.6436 6.49219C11.1631 5.80859 11.8717 5.4668 12.7695 5.4668C13.4896 5.4668 14.0843 5.73568 14.5537 6.27344V2.5H16.5361V13H14.752L14.6562 12.2139C14.1641 12.8291 13.5306 13.1367 12.7559 13.1367C11.8854 13.1367 11.1859 12.7949 10.6572 12.1113C10.1331 11.4232 9.87109 10.4684 9.87109 9.24707ZM11.8467 9.39062C11.8467 10.0833 11.9674 10.6143 12.209 10.9834C12.4505 11.3525 12.8014 11.5371 13.2617 11.5371C13.8724 11.5371 14.3031 11.2796 14.5537 10.7646V7.8457C14.3076 7.33073 13.8815 7.07324 13.2754 7.07324C12.3229 7.07324 11.8467 7.8457 11.8467 9.39062ZM19.9199 5.60352L19.9814 6.43066C20.5055 5.78809 21.2142 5.4668 22.1074 5.4668C23.0599 5.4668 23.7139 5.84277 24.0693 6.59473C24.5889 5.84277 25.3294 5.4668 26.291 5.4668C27.0931 5.4668 27.6901 5.7015 28.082 6.1709C28.474 6.63574 28.6699 7.33757 28.6699 8.27637V13H26.6875V8.2832C26.6875 7.86393 26.6055 7.55859 26.4414 7.36719C26.2773 7.17122 25.988 7.07324 25.5732 7.07324C24.9808 7.07324 24.5706 7.35579 24.3428 7.9209L24.3496 13H22.374V8.29004C22.374 7.86165 22.2897 7.55176 22.1211 7.36035C21.9525 7.16895 21.6654 7.07324 21.2598 7.07324C20.6992 7.07324 20.2936 7.30566 20.043 7.77051V13H18.0674V5.60352H19.9199ZM32.2793 13H30.2969V5.60352H32.2793V13ZM30.1807 3.68945C30.1807 3.39323 30.2786 3.14941 30.4746 2.95801C30.6751 2.7666 30.9463 2.6709 31.2881 2.6709C31.6253 2.6709 31.8942 2.7666 32.0947 2.95801C32.2952 3.14941 32.3955 3.39323 32.3955 3.68945C32.3955 3.99023 32.293 4.23633 32.0879 4.42773C31.8874 4.61914 31.6208 4.71484 31.2881 4.71484C30.9554 4.71484 30.6865 4.61914 30.4814 4.42773C30.2809 4.23633 30.1807 3.99023 30.1807 3.68945ZM35.7314 5.60352L35.793 6.45801C36.3216 5.7972 37.0303 5.4668 37.9189 5.4668C38.7028 5.4668 39.2861 5.69694 39.6689 6.15723C40.0518 6.61751 40.2477 7.30566 40.2568 8.22168V13H38.2812V8.26953C38.2812 7.85026 38.1901 7.5472 38.0078 7.36035C37.8255 7.16895 37.5225 7.07324 37.0986 7.07324C36.5426 7.07324 36.1257 7.31022 35.8477 7.78418V13H33.8721V5.60352H35.7314ZM47.4277 9.49316V13H45.377V3.04688H49.2598C50.0072 3.04688 50.6634 3.18359 51.2285 3.45703C51.7982 3.73047 52.2357 4.12012 52.541 4.62598C52.8464 5.12728 52.999 5.69922 52.999 6.3418C52.999 7.31706 52.6641 8.08724 51.9941 8.65234C51.3288 9.21289 50.4059 9.49316 49.2256 9.49316H47.4277ZM47.4277 7.83203H49.2598C49.8021 7.83203 50.2145 7.70443 50.4971 7.44922C50.7842 7.19401 50.9277 6.82943 50.9277 6.35547C50.9277 5.86784 50.7842 5.47363 50.4971 5.17285C50.21 4.87207 49.8135 4.71712 49.3076 4.70801H47.4277V7.83203ZM58.4883 13C58.3971 12.8223 58.3311 12.6012 58.29 12.3369C57.8115 12.8701 57.1895 13.1367 56.4238 13.1367C55.6992 13.1367 55.0977 12.9271 54.6191 12.5078C54.1452 12.0885 53.9082 11.5599 53.9082 10.9219C53.9082 10.138 54.1976 9.53646 54.7764 9.11719C55.3597 8.69792 56.2005 8.486 57.2988 8.48145H58.208V8.05762C58.208 7.71582 58.1191 7.44238 57.9414 7.2373C57.7682 7.03223 57.4925 6.92969 57.1143 6.92969C56.7816 6.92969 56.5195 7.00944 56.3281 7.16895C56.1413 7.32845 56.0479 7.5472 56.0479 7.8252H54.0723C54.0723 7.39681 54.2044 7.00033 54.4688 6.63574C54.7331 6.27116 55.1068 5.98633 55.5898 5.78125C56.0729 5.57161 56.6152 5.4668 57.2168 5.4668C58.1283 5.4668 58.8506 5.69694 59.3838 6.15723C59.9215 6.61296 60.1904 7.25553 60.1904 8.08496V11.291C60.195 11.9928 60.293 12.5238 60.4844 12.8838V13H58.4883ZM56.8545 11.626C57.1462 11.626 57.415 11.5622 57.6611 11.4346C57.9072 11.3024 58.0895 11.127 58.208 10.9082V9.63672H57.4697C56.4808 9.63672 55.9544 9.97852 55.8906 10.6621L55.8838 10.7783C55.8838 11.0244 55.9704 11.2272 56.1436 11.3867C56.3167 11.5462 56.5537 11.626 56.8545 11.626ZM63.5264 5.60352L63.5879 6.45801C64.1165 5.7972 64.8252 5.4668 65.7139 5.4668C66.4977 5.4668 67.0811 5.69694 67.4639 6.15723C67.8467 6.61751 68.0426 7.30566 68.0518 8.22168V13H66.0762V8.26953C66.0762 7.85026 65.985 7.5472 65.8027 7.36035C65.6204 7.16895 65.3174 7.07324 64.8936 7.07324C64.3376 7.07324 63.9206 7.31022 63.6426 7.78418V13H61.667V5.60352H63.5264ZM72.96 13.1367C71.8753 13.1367 70.9912 12.804 70.3076 12.1387C69.6286 11.4733 69.2891 10.5869 69.2891 9.47949V9.28809C69.2891 8.54525 69.4326 7.88216 69.7197 7.29883C70.0068 6.71094 70.4124 6.25977 70.9365 5.94531C71.4652 5.6263 72.0667 5.4668 72.7412 5.4668C73.7529 5.4668 74.5482 5.78581 75.127 6.42383C75.7103 7.06185 76.002 7.96647 76.002 9.1377V9.94434H71.292C71.3558 10.4274 71.5472 10.8148 71.8662 11.1064C72.1898 11.3981 72.5977 11.5439 73.0898 11.5439C73.8509 11.5439 74.4456 11.2682 74.874 10.7168L75.8447 11.8037C75.5485 12.223 75.1475 12.5511 74.6416 12.7881C74.1357 13.0205 73.5752 13.1367 72.96 13.1367ZM72.7344 7.06641C72.3424 7.06641 72.0234 7.19857 71.7773 7.46289C71.5358 7.72721 71.3809 8.10547 71.3125 8.59766H74.0605V8.44043C74.0514 8.00293 73.9329 7.66569 73.7051 7.42871C73.4772 7.18717 73.1536 7.06641 72.7344 7.06641ZM79.2148 13H77.2324V2.5H79.2148V13Z" fill="black"/>
</svg>
