<svg width="102" height="19" viewBox="0 0 102 19" fill="none" xmlns="http://www.w3.org/2000/svg">
<path d="M13.8574 14.1328L16.2637 2.35938H18.96L15.3506 18H12.751L9.77539 6.58105L6.73535 18H4.125L0.515625 2.35938H3.21191L5.63965 14.1113L8.62598 2.35938H10.9033L13.8574 14.1328ZM30.0889 11.0176H23.665V15.8301H31.1738V18H20.9473V2.35938H31.0986V4.55078H23.665V8.86914H30.0889V11.0176Z" fill="black"/>
<path d="M52.1934 12.3164C52.0605 14.1523 51.3809 15.5977 50.1543 16.6523C48.9355 17.707 47.3262 18.2344 45.3262 18.2344C43.1387 18.2344 41.416 17.5 40.1582 16.0312C38.9082 14.5547 38.2832 12.5312 38.2832 9.96094V8.91797C38.2832 7.27734 38.5723 5.83203 39.1504 4.58203C39.7285 3.33203 40.5527 2.375 41.623 1.71094C42.7012 1.03906 43.9512 0.703125 45.373 0.703125C47.3418 0.703125 48.9277 1.23047 50.1309 2.28516C51.334 3.33984 52.0293 4.82031 52.2168 6.72656H48.7012C48.6152 5.625 48.3066 4.82812 47.7754 4.33594C47.252 3.83594 46.4512 3.58594 45.373 3.58594C44.2012 3.58594 43.3223 4.00781 42.7363 4.85156C42.1582 5.6875 41.8613 6.98828 41.8457 8.75391V10.043C41.8457 11.8867 42.123 13.2344 42.6777 14.0859C43.2402 14.9375 44.123 15.3633 45.3262 15.3633C46.4121 15.3633 47.2207 15.1172 47.752 14.625C48.291 14.125 48.5996 13.3555 48.6777 12.3164H52.1934ZM64.1348 14.4844H57.9707L56.7988 18H53.0605L59.4121 0.9375H62.6699L69.0566 18H65.3184L64.1348 14.4844ZM58.9199 11.6367H63.1855L61.041 5.25L58.9199 11.6367ZM76.9668 11.7539H74.166V18H70.6504V0.9375H76.9902C79.0059 0.9375 80.5605 1.38672 81.6543 2.28516C82.748 3.18359 83.2949 4.45312 83.2949 6.09375C83.2949 7.25781 83.041 8.23047 82.5332 9.01172C82.0332 9.78516 81.2715 10.4023 80.248 10.8633L83.9395 17.8359V18H80.166L76.9668 11.7539ZM74.166 8.90625H77.002C77.8848 8.90625 78.5684 8.68359 79.0527 8.23828C79.5371 7.78516 79.7793 7.16406 79.7793 6.375C79.7793 5.57031 79.5488 4.9375 79.0879 4.47656C78.6348 4.01562 77.9355 3.78516 76.9902 3.78516H74.166V8.90625ZM98.2363 3.78516H93.0098V18H89.4941V3.78516H84.3379V0.9375H98.2363V3.78516ZM97.1816 16.3359C97.1816 15.7969 97.3613 15.3594 97.7207 15.0234C98.0879 14.6875 98.5449 14.5195 99.0918 14.5195C99.6465 14.5195 100.104 14.6875 100.463 15.0234C100.83 15.3594 101.014 15.7969 101.014 16.3359C101.014 16.8672 100.834 17.3008 100.475 17.6367C100.115 17.9648 99.6543 18.1289 99.0918 18.1289C98.5371 18.1289 98.0801 17.9648 97.7207 17.6367C97.3613 17.3008 97.1816 16.8672 97.1816 16.3359Z" fill="#0F9CEB"/>
</svg>
